<?xml version="1.0" encoding="utf-8"?>
<!-- Generator: Adobe Illustrator 16.0.0, SVG Export Plug-In . SVG Version: 6.00 Build 0)  -->
<!DOCTYPE svg PUBLIC "-//W3C//DTD SVG 1.1//EN" "http://www.w3.org/Graphics/SVG/1.1/DTD/svg11.dtd">
<svg version="1.1" id="Layer_1" xmlns="http://www.w3.org/2000/svg" xmlns:xlink="http://www.w3.org/1999/xlink" x="0px" y="0px"
	 width="25px" height="25px" viewBox="0 0 25 25" enable-background="new 0 0 25 25" xml:space="preserve">
<rect fill="#476696" width="25" height="25"/>
<g>
	<defs>
		<rect id="SVGID_1_" x="-102.813" y="-54" width="309.996" height="225.879"/>
	</defs>
	<clipPath id="SVGID_2_">
		<use xlink:href="#SVGID_1_"  overflow="visible"/>
	</clipPath>
	<path clip-path="url(#SVGID_2_)" fill="#FFFFFF" d="M4.688,1.96h15.476c1.468,0,2.669,1.231,2.669,2.734V20.54
		c0,1.502-1.201,2.734-2.669,2.734H4.688c-1.471,0-2.674-1.232-2.674-2.734V4.694C2.014,3.191,3.217,1.96,4.688,1.96 M17.181,4.327
		c-0.518,0-0.937,0.434-0.937,0.961v2.296c0,0.529,0.419,0.96,0.937,0.96h2.353c0.516,0,0.938-0.432,0.938-0.96V5.288
		c0-0.527-0.423-0.961-0.938-0.961H17.181z M20.479,10.973h-1.833c0.175,0.582,0.269,1.191,0.269,1.83
		c0,3.545-2.897,6.418-6.472,6.418c-3.573,0-6.473-2.873-6.473-6.418c0-0.639,0.096-1.248,0.27-1.83H4.329v9.005
		c0,0.467,0.372,0.847,0.827,0.847h14.495c0.456,0,0.828-0.38,0.828-0.847V10.973z M12.443,8.423c-2.308,0-4.18,1.855-4.18,4.149
		c0,2.289,1.872,4.146,4.18,4.146c2.311,0,4.182-1.857,4.182-4.146C16.625,10.278,14.754,8.423,12.443,8.423"/>
</g>
</svg>
