<?xml version="1.0" encoding="utf-8"?>
<!-- Generator: Adobe Illustrator 16.0.0, SVG Export Plug-In . SVG Version: 6.00 Build 0)  -->
<!DOCTYPE svg PUBLIC "-//W3C//DTD SVG 1.1//EN" "http://www.w3.org/Graphics/SVG/1.1/DTD/svg11.dtd">
<svg version="1.1" id="Layer_1" xmlns="http://www.w3.org/2000/svg" xmlns:xlink="http://www.w3.org/1999/xlink" x="0px" y="0px"
	 width="25px" height="25px" viewBox="0 0 25 25" enable-background="new 0 0 25 25" xml:space="preserve">
<rect fill="#AD252B" width="25" height="25"/>
<g>
	<defs>
		<rect id="SVGID_1_" width="25" height="25"/>
	</defs>
	<clipPath id="SVGID_2_">
		<use xlink:href="#SVGID_1_"  overflow="visible"/>
	</clipPath>
	<path clip-path="url(#SVGID_2_)" fill="#FFFFFF" d="M12.932-0.172c-6.723,0-12.177,5.618-12.177,12.545
		c0,5.14,2.998,9.553,7.291,11.491c-0.039-0.875-0.007-1.93,0.206-2.88c0.239-1.021,1.566-6.837,1.566-6.837s-0.387-0.8-0.387-1.988
		c0-1.858,1.051-3.243,2.353-3.243c1.102,0,1.637,0.855,1.637,1.882c0,1.145-0.709,2.861-1.076,4.451
		c-0.303,1.333,0.651,2.416,1.921,2.416c2.308,0,3.86-3.05,3.86-6.668c0-2.752-1.798-4.809-5.066-4.809
		c-3.686,0-5.988,2.837-5.988,6.01c0,1.092,0.31,1.864,0.8,2.459c0.226,0.274,0.258,0.383,0.174,0.699
		c-0.052,0.232-0.187,0.785-0.245,1.008c-0.084,0.316-0.329,0.431-0.612,0.312c-1.696-0.714-2.489-2.634-2.489-4.792
		c0-3.564,2.914-7.839,8.696-7.839c4.647,0,7.702,3.466,7.702,7.188c0,4.922-2.648,8.602-6.562,8.602
		c-1.314,0-2.552-0.734-2.972-1.566c0,0-0.709,2.89-0.857,3.448c-0.258,0.969-0.767,1.934-1.225,2.69
		c1.09,0.33,2.25,0.51,3.449,0.51c6.717,0,12.163-5.613,12.163-12.545C25.095,5.445,19.648-0.172,12.932-0.172"/>
</g>
</svg>
