<?xml version="1.0" encoding="utf-8"?>
<!-- Generator: Adobe Illustrator 16.0.0, SVG Export Plug-In . SVG Version: 6.00 Build 0)  -->
<!DOCTYPE svg PUBLIC "-//W3C//DTD SVG 1.1//EN" "http://www.w3.org/Graphics/SVG/1.1/DTD/svg11.dtd">
<svg version="1.1" id="Layer_1" xmlns="http://www.w3.org/2000/svg" xmlns:xlink="http://www.w3.org/1999/xlink" x="0px" y="0px"
	 width="25px" height="25px" viewBox="0 0 25 25" enable-background="new 0 0 25 25" xml:space="preserve">
<rect fill="#64A6DC" width="25" height="25"/>
<g>
	<defs>
		<rect id="SVGID_1_" x="-139.809" y="-95.403" width="306" height="229"/>
	</defs>
	<clipPath id="SVGID_2_">
		<use xlink:href="#SVGID_1_"  overflow="visible"/>
	</clipPath>
	<path clip-path="url(#SVGID_2_)" fill="#FFFFFF" d="M23.438,6.125c-0.764,0.356-1.589,0.599-2.45,0.707
		c0.882-0.555,1.559-1.435,1.876-2.483c-0.822,0.515-1.736,0.888-2.709,1.09c-0.778-0.873-1.889-1.417-3.115-1.417
		c-2.357,0-4.269,2.009-4.269,4.488c0,0.35,0.039,0.692,0.111,1.021C9.335,9.345,6.192,7.558,4.087,4.842
		C3.72,5.505,3.509,6.276,3.509,7.098c0,1.556,0.754,2.932,1.898,3.736c-0.699-0.022-1.357-0.227-1.934-0.562v0.057
		c0,2.174,1.473,3.988,3.424,4.4c-0.358,0.104-0.736,0.158-1.124,0.158c-0.274,0-0.542-0.029-0.803-0.08
		c0.543,1.781,2.119,3.078,3.986,3.117c-1.458,1.203-3.3,1.92-5.3,1.92c-0.344,0-0.684-0.021-1.018-0.062
		c1.889,1.271,4.132,2.014,6.542,2.014c7.851,0,12.143-6.834,12.143-12.766c0-0.194-0.005-0.387-0.013-0.582
		C22.143,7.816,22.865,7.025,23.438,6.125"/>
</g>
</svg>
